<svg width="14" height="20" viewBox="0 0 14 20" fill="none" xmlns="http://www.w3.org/2000/svg">
<path fill-rule="evenodd" clip-rule="evenodd" d="M6 2H4C2.89543 2 2 2.89543 2 4C2 5.10457 2.89543 6 4 6H6V2ZM0 4C0 5.19469 0.523755 6.26706 1.35418 7C0.523755 7.73295 0 8.80531 0 10C0 11.1947 0.523755 12.2671 1.35418 13C0.523755 13.7329 0 14.8053 0 16C0 18.2091 1.79086 20 4 20C6.20914 20 8 18.2091 8 16V14V13.4649C8.58835 13.8052 9.27143 14 10 14C12.2091 14 14 12.2091 14 10C14 8.80531 13.4762 7.73295 12.6458 7C13.4762 6.26706 14 5.19469 14 4C14 1.79086 12.2091 0 10 0H8H6H4C1.79086 0 0 1.79086 0 4ZM6 12V10V8H4C2.89543 8 2 8.89543 2 10C2 11.1046 2.89543 12 4 12H6ZM4 14C2.89543 14 2 14.8954 2 16C2 17.1046 2.89543 18 4 18C5.10457 18 6 17.1046 6 16V14H4ZM10 12C8.89543 12 8 11.1046 8 10C8 8.89543 8.89543 8 10 8C11.1046 8 12 8.89543 12 10C12 11.1046 11.1046 12 10 12ZM10 6H8V2H10C11.1046 2 12 2.89543 12 4C12 5.10457 11.1046 6 10 6Z" fill="#422544"/>
</svg>
