<svg width="72" height="19" viewBox="0 0 72 19" fill="none" xmlns="http://www.w3.org/2000/svg">
<path d="M8.216 0.839999C9.608 0.839999 10.768 1.032 11.696 1.416C12.624 1.8 13.264 2.232 13.616 2.712L14.12 6.72H13.16C12.12 3.36 10.656 1.68 8.768 1.68C7.648 1.68 6.792 2.328 6.2 3.624C5.624 4.92 5.336 6.728 5.336 9.048C5.336 11.288 5.768 13.096 6.632 14.472C7.496 15.832 8.688 16.512 10.208 16.512C10.976 16.512 11.656 16.272 12.248 15.792C12.84 15.312 13.272 14.616 13.544 13.704L14.384 13.872C14.336 14.224 14.248 14.584 14.12 14.952C14.008 15.304 13.808 15.696 13.52 16.128C13.232 16.544 12.88 16.912 12.464 17.232C12.064 17.536 11.528 17.792 10.856 18C10.184 18.224 9.424 18.336 8.576 18.336C7.488 18.336 6.432 18.152 5.408 17.784C4.4 17.416 3.488 16.888 2.672 16.2C1.872 15.496 1.224 14.584 0.728 13.464C0.248 12.344 0.00800008 11.096 0.00800008 9.72C0.00800008 7 0.752 4.84 2.24 3.24C3.744 1.64 5.736 0.839999 8.216 0.839999Z" fill="#FF9F29"/>
<path d="M27.5576 16.704C26.3096 17.808 24.6536 18.36 22.5896 18.36C20.5256 18.36 18.8536 17.808 17.5736 16.704C16.3096 15.584 15.6776 14.048 15.6776 12.096C15.6776 10.128 16.3176 8.56 17.5976 7.392C18.8776 6.224 20.5416 5.64 22.5896 5.64C24.7336 5.64 26.4136 6.216 27.6296 7.368C28.8456 8.52 29.4536 10.096 29.4536 12.096C29.4536 14.048 28.8216 15.584 27.5576 16.704ZM21.7256 17.28C21.9176 17.504 22.1976 17.616 22.5656 17.616C22.9336 17.616 23.2136 17.504 23.4056 17.28C23.5976 17.04 23.7496 16.512 23.8616 15.696C23.9896 14.88 24.0536 13.68 24.0536 12.096C24.0536 10.528 23.9896 9.32 23.8616 8.472C23.7496 7.624 23.5896 7.064 23.3816 6.792C23.1896 6.504 22.9176 6.36 22.5656 6.36C22.2136 6.36 21.9336 6.504 21.7256 6.792C21.5336 7.08 21.3736 7.648 21.2456 8.496C21.1336 9.344 21.0776 10.544 21.0776 12.096C21.0776 13.68 21.1336 14.88 21.2456 15.696C21.3736 16.512 21.5336 17.04 21.7256 17.28ZM35.4307 18.36C34.0227 18.36 32.9027 17.768 32.0707 16.584C31.2387 15.4 30.8227 13.904 30.8227 12.096C30.8227 10.272 31.2387 8.744 32.0707 7.512C32.9027 6.264 34.0227 5.64 35.4307 5.64C36.8067 5.64 37.9427 6.336 38.8387 7.728V3.216C38.8387 2.88 38.7987 2.6 38.7187 2.376C38.6387 2.152 38.5107 1.984 38.3347 1.872C38.1587 1.744 38.0147 1.656 37.9027 1.608C37.7907 1.56 37.6227 1.504 37.3987 1.44V1.2H44.1187V18.36H43.9987L39.0307 15.96C38.5987 16.712 38.0707 17.304 37.4467 17.736C36.8227 18.152 36.1507 18.36 35.4307 18.36ZM37.5187 16.344C37.7107 16.344 37.9027 16.192 38.0947 15.888C38.2867 15.584 38.4547 15.096 38.5987 14.424C38.7587 13.736 38.8387 12.96 38.8387 12.096C38.8387 11.168 38.7587 10.344 38.5987 9.624C38.4547 8.904 38.2787 8.376 38.0707 8.04C37.8787 7.704 37.6867 7.536 37.4947 7.536C37.1267 7.536 36.8227 7.928 36.5827 8.712C36.3427 9.48 36.2227 10.608 36.2227 12.096C36.2227 13.456 36.3427 14.504 36.5827 15.24C36.8387 15.976 37.1507 16.344 37.5187 16.344ZM54.7858 16.776C55.4098 16.776 56.0018 16.52 56.5618 16.008C57.1218 15.496 57.5538 14.888 57.8578 14.184L58.5778 14.616C57.8258 17.112 55.9698 18.36 53.0098 18.36C51.0258 18.36 49.4018 17.8 48.1378 16.68C46.8898 15.544 46.2258 14.064 46.1458 12.24C46.1458 10.32 46.7538 8.744 47.9698 7.512C49.2018 6.264 50.7378 5.64 52.5778 5.64C54.2258 5.64 55.6418 6.144 56.8258 7.152C58.0258 8.16 58.6258 9.456 58.6258 11.04H51.4738C51.4738 11.136 51.4738 11.248 51.4738 11.376C51.4898 11.488 51.5058 11.616 51.5218 11.76C51.5378 11.904 51.5458 12.016 51.5458 12.096C51.6898 13.6 52.0577 14.76 52.6497 15.576C53.2418 16.376 53.9538 16.776 54.7858 16.776ZM52.6738 6.36C52.2898 6.36 51.9858 6.712 51.7617 7.416C51.5538 8.12 51.4498 9.048 51.4498 10.2H53.8258C53.8258 9.288 53.7698 8.536 53.6578 7.944C53.5458 7.336 53.4018 6.92 53.2258 6.696C53.0658 6.472 52.8818 6.36 52.6738 6.36ZM71.3801 7.248L71.9321 11.688H70.9481C70.2761 9.72 69.7721 8.416 69.4361 7.776C69.1001 7.136 68.6841 6.816 68.1881 6.816C67.5641 6.816 67.0761 7.384 66.7241 8.52C66.3881 9.64 66.2201 11.232 66.2201 13.296V15.984C66.2201 16.624 66.2921 17.04 66.4361 17.232C66.5801 17.408 66.8281 17.504 67.1801 17.52V18H59.5001V17.52C59.6921 17.52 59.8521 17.504 59.9801 17.472C60.1241 17.44 60.2761 17.376 60.4361 17.28C60.5961 17.184 60.7161 17.032 60.7961 16.824C60.8921 16.6 60.9401 16.32 60.9401 15.984V8.016C60.9401 7.584 60.8521 7.248 60.6761 7.008C60.5161 6.768 60.3481 6.624 60.1721 6.576C59.9961 6.528 59.7721 6.496 59.5001 6.48V6H66.2201V7.272C66.9241 6.184 67.7721 5.64 68.7641 5.64C69.2761 5.64 69.7721 5.792 70.2521 6.096C70.7321 6.4 71.1081 6.784 71.3801 7.248Z" fill="white"/>
</svg>
