<svg width="97" height="24" viewBox="0 0 97 24" fill="none" xmlns="http://www.w3.org/2000/svg">
<path d="M11.288 0.119999C13.144 0.119999 14.6907 0.375999 15.928 0.887999C17.1653 1.4 18.0187 1.976 18.488 2.616L19.16 7.96H17.88C16.4933 3.48 14.5413 1.24 12.024 1.24C10.5307 1.24 9.38933 2.104 8.6 3.832C7.832 5.56 7.448 7.97067 7.448 11.064C7.448 14.0507 8.024 16.4613 9.176 18.296C10.328 20.1093 11.9173 21.016 13.944 21.016C14.968 21.016 15.8747 20.696 16.664 20.056C17.4533 19.416 18.0293 18.488 18.392 17.272L19.512 17.496C19.448 17.9653 19.3307 18.4453 19.16 18.936C19.0107 19.4053 18.744 19.928 18.36 20.504C17.976 21.0587 17.5067 21.5493 16.952 21.976C16.4187 22.3813 15.704 22.7227 14.808 23C13.912 23.2987 12.8987 23.448 11.768 23.448C10.3173 23.448 8.90933 23.2027 7.544 22.712C6.2 22.2213 4.984 21.5173 3.896 20.6C2.82933 19.6613 1.96533 18.4453 1.304 16.952C0.664 15.4587 0.344 13.7947 0.344 11.96C0.344 8.33333 1.336 5.45333 3.32 3.32C5.32533 1.18667 7.98133 0.119999 11.288 0.119999Z" fill="#FF9F29"/>
<path d="M37.0768 21.272C35.4128 22.744 33.2048 23.48 30.4528 23.48C27.7008 23.48 25.4714 22.744 23.7648 21.272C22.0794 19.7787 21.2368 17.7307 21.2368 15.128C21.2368 12.504 22.0901 10.4133 23.7968 8.856C25.5034 7.29867 27.7221 6.52 30.4528 6.52C33.3114 6.52 35.5514 7.288 37.1728 8.824C38.7941 10.36 39.6048 12.4613 39.6048 15.128C39.6048 17.7307 38.7621 19.7787 37.0768 21.272ZM29.3008 22.04C29.5568 22.3387 29.9301 22.488 30.4208 22.488C30.9114 22.488 31.2848 22.3387 31.5408 22.04C31.7968 21.72 31.9994 21.016 32.1488 19.928C32.3194 18.84 32.4048 17.24 32.4048 15.128C32.4048 13.0373 32.3194 11.4267 32.1488 10.296C31.9994 9.16533 31.7861 8.41867 31.5088 8.056C31.2528 7.672 30.8901 7.48 30.4208 7.48C29.9514 7.48 29.5781 7.672 29.3008 8.056C29.0448 8.44 28.8314 9.19733 28.6608 10.328C28.5114 11.4587 28.4368 13.0587 28.4368 15.128C28.4368 17.24 28.5114 18.84 28.6608 19.928C28.8314 21.016 29.0448 21.72 29.3008 22.04ZM47.5743 23.48C45.6969 23.48 44.2036 22.6907 43.0943 21.112C41.9849 19.5333 41.4303 17.5387 41.4303 15.128C41.4303 12.696 41.9849 10.6587 43.0943 9.016C44.2036 7.352 45.6969 6.52 47.5743 6.52C49.4089 6.52 50.9236 7.448 52.1183 9.304V3.288C52.1183 2.84 52.0649 2.46667 51.9583 2.168C51.8516 1.86933 51.6809 1.64533 51.4463 1.496C51.2116 1.32533 51.0196 1.208 50.8703 1.144C50.7209 1.08 50.4969 1.00533 50.1983 0.919998V0.599998H59.1583V23.48H58.9983L52.3743 20.28C51.7983 21.2827 51.0943 22.072 50.2623 22.648C49.4303 23.2027 48.5343 23.48 47.5743 23.48ZM50.3583 20.792C50.6143 20.792 50.8703 20.5893 51.1263 20.184C51.3823 19.7787 51.6063 19.128 51.7983 18.232C52.0116 17.3147 52.1183 16.28 52.1183 15.128C52.1183 13.8907 52.0116 12.792 51.7983 11.832C51.6063 10.872 51.3716 10.168 51.0943 9.72C50.8383 9.272 50.5823 9.048 50.3263 9.048C49.8356 9.048 49.4303 9.57067 49.1103 10.616C48.7903 11.64 48.6302 13.144 48.6302 15.128C48.6302 16.9413 48.7903 18.3387 49.1103 19.32C49.4516 20.3013 49.8676 20.792 50.3583 20.792ZM73.381 21.368C74.213 21.368 75.0023 21.0267 75.749 20.344C76.4957 19.6613 77.0717 18.8507 77.477 17.912L78.437 18.488C77.4343 21.816 74.9597 23.48 71.013 23.48C68.3677 23.48 66.2023 22.7333 64.517 21.24C62.853 19.7253 61.9677 17.752 61.861 15.32C61.861 12.76 62.6717 10.6587 64.293 9.016C65.9357 7.352 67.9837 6.52 70.437 6.52C72.6343 6.52 74.5223 7.192 76.101 8.536C77.701 9.88 78.501 11.608 78.501 13.72H68.965C68.965 13.848 68.965 13.9973 68.965 14.168C68.9863 14.3173 69.0077 14.488 69.029 14.68C69.0503 14.872 69.061 15.0213 69.061 15.128C69.253 17.1333 69.7437 18.68 70.533 19.768C71.3223 20.8347 72.2717 21.368 73.381 21.368ZM70.565 7.48C70.053 7.48 69.6477 7.94933 69.349 8.888C69.0717 9.82667 68.933 11.064 68.933 12.6H72.101C72.101 11.384 72.0263 10.3813 71.877 9.592C71.7277 8.78133 71.5357 8.22667 71.301 7.928C71.0877 7.62933 70.8423 7.48 70.565 7.48ZM95.5068 8.664L96.2428 14.584H94.9308C94.0348 11.96 93.3628 10.2213 92.9148 9.368C92.4668 8.51467 91.9121 8.088 91.2508 8.088C90.4188 8.088 89.7681 8.84533 89.2988 10.36C88.8508 11.8533 88.6267 13.976 88.6267 16.728V20.312C88.6267 21.1653 88.7228 21.72 88.9148 21.976C89.1068 22.2107 89.4374 22.3387 89.9068 22.36V23H79.6668V22.36C79.9228 22.36 80.1361 22.3387 80.3068 22.296C80.4988 22.2533 80.7014 22.168 80.9148 22.04C81.1281 21.912 81.2881 21.7093 81.3948 21.432C81.5228 21.1333 81.5868 20.76 81.5868 20.312V9.688C81.5868 9.112 81.4694 8.664 81.2348 8.344C81.0214 8.024 80.7974 7.832 80.5628 7.768C80.3281 7.704 80.0294 7.66133 79.6668 7.64V7H88.6267V8.696C89.5654 7.24533 90.6961 6.52 92.0188 6.52C92.7014 6.52 93.3628 6.72267 94.0028 7.128C94.6428 7.53333 95.1441 8.04533 95.5068 8.664Z" fill="white"/>
</svg>
